<?xml version="1.0" encoding="UTF-8"?>
<svg id="Layer_2" data-name="Layer 2" xmlns="http://www.w3.org/2000/svg" viewBox="0 0 202.08 196.87">
  <defs>
    <style>
      .cls-1 {
        letter-spacing: -.05em;
      }

      .cls-2 {
        font-family: QuinnDisplay-Black, 'Quinn Display';
        font-size: 21px;
        font-weight: 800;
        stroke: #009444;
        stroke-width: .25px;
      }

      .cls-2, .cls-3 {
        stroke-miterlimit: 10;
      }

      .cls-2, .cls-4 {
        fill: #3c2415;
      }

      .cls-3 {
        fill: none;
        stroke: #3c2415;
      }

      .cls-5 {
        letter-spacing: 0em;
      }
    </style>
  </defs>
  <g id="Layer_2-2" data-name="Layer 2">
    <g>
      <path class="cls-4" d="M171.42,120.97c-.08.2-.63.89-.84.88-.57-.02-.47-.89-1.04-.89-.48.43-1.12.64-1.71,1.19-1.18,1.12-3.24,1.81-4.89,3.23-1.41,1.22-2.01,3.65-3.65,4.77s-3.63,1.7-5.37,2.43c-1.87.78-3.79.88-5.67.88-1.39,0-2.78.23-3.99-.29-1.77-.76-3.78-1.88-5.17-3.75-1.1-1.48-2.37-3.37-3.23-5.55-.7-1.76-1.27-3.88-1.8-6.09-.46-1.88-.27-4.08-.61-6.28-.3-1.94-.85-3.99-1.06-6.18-.17-1.77.83-3.73.72-5.68-.1-1.8.05-3.65,0-5.58-.02-1.69-2.81-3.26-1.37-4.14,2.37-1.44,3.25.19,6.03.19s2.78,1.13,5.56,1.13,5.74-3.08,5.74-6.19-3.07-6.29-5.74-6.29c-3.36,0-3.36-.1-6.72-.1s-3.36.61-6.72.61-4.93,3.12-7.33.77-.02-3.91-.02-7.2,1.69-3.29,1.69-6.58-1.67-3.29-1.67-6.58c0-1.57-1.03-2.13-2.96-3.03-1.41-.66-2.81-.84-4.75-.84s-4.05-1.36-5.47-.7c-1.94.9-3.06,3.01-3.06,4.57,0,4.82,2.8,5.5-.4,9.11-2.85,3.2-5.64,4.21-8.48,1-3.2-3.61.49-5.29.49-10.11,0-1.57-.87-3.69-2.81-4.59-1.42-.66-3.54-.27-5.48-.27-3.1,0-5.73,1.16-7.19,2.82-.94,1.06-1.21,3.44-2.49,2.82s.87-2.21,1.15-3.6c.62-3.04,3.13-5.12,6.25-5.12,2.33,0,2.33-.59,4.66-.59,2.69,0,4.29-2.1,4.29-5.2s-1.61-5.57-4.29-5.57c-3.22,0-3.22.1-6.43.1s-3.21-.43-6.43-.43-3.22-.73-6.43-.73-3.22.11-6.44.11-3.22,1.79-6.44,1.79c-.37,0-.66-.41-1.01-.31-.73.07-1.55-1.28-2.19-1.21-.26.03-.3,2.02-.55,2.05,0,0-.21-1.68-.21-1.68-.29.04-.59,0-.87.05-.36.05-.54,1.27-.88,1.32-.22.03-.47-.18-.68-.14-2.25.38-4.14,1.29-5.97,1.85-2.21.68-4.44.67-6.13,1.54-2.08,1.07-3.82,2.32-5.25,3.55-1.77,1.53-2.88,3.37-3.93,4.92-1.37,2.04-2.57,3.82-3.26,5.39-.94,2.12-1.22,4.23-2.49,4.61-.67.19-1.36-.84-2.25-1.43-.18-.12-1.62.05-1.56-.16.23-.72,1.08-.63,1.65-1.12.17-.14.08.63.27.75.47.31,1.26.68,1.5.61.59-.18.17-2.49.86-4.05.02-.04,1.43.59,1.44.55.71-1.61,1.59-3.47,2.95-5.54,1.05-1.6,2.18-3.22,3.94-4.81,1.43-1.29,2.46-3.52,4.54-4.65,1.7-.92,4.11-.74,6.34-1.47,1.86-.61,3.96-.59,6.24-1.02,1.95-.36,3.88-1.54,6.17-1.74.75-.07,1.52-1.02,2.31-1.06,3.12-.02,3.12.72,6.24.72s3.12.62,6.23.62,3.12-.44,6.24-.44,3.12-.51,6.24-.51,3.12.16,6.24.16c1.82,0,2.82,1.66,3.99,3.04,1.08,1.28,2.32,2.46,2.32,4.35s.13,4.24-.95,5.52c-1.17,1.38-3.54,1.2-5.36,1.2-2.33,0-2.33,1.47-4.66,1.47-1.29,0-2.51-.53-3.43.31,1.65-.76,3.64-.18,5.71-.18,2.36,0,4.44-.31,6.14.6,2.2,1.18,3.04,2.81,3.04,4.81,0,4.06-1.79,4.88.5,8.24,1.55,2.29,4.52,2.43,6.07.15,2.29-3.36-.52-4.32-.52-8.39,0-2.01,1.6-3.69,3.81-4.87,1.7-.91,3.81-1.24,6.17-1.24s4.97-.58,6.66.33c2.2,1.18,2.82,3.78,2.82,5.79,0,3.04.18,3.04.18,6.07s-.05,3.04-.05,6.07-1.71,3.71.46,5.83,2.87,1.02,5.97,1.02,3.11-.99,6.22-.99,3.11-.57,6.22-.57c1.82,0,2.95,2.07,4.11,3.46,1.07,1.28,1.87,2.58,1.87,4.48s.13,3.97-.95,5.26c-1.16,1.38-3.22,1.19-5.04,1.19-4.8,0-4.92-.37-9.63.51-.88.17.67,1.09.68,1.99.04,2.38-1.08,4.69-.96,6.85.13,2.4,1.29,4.59,1.52,6.71.26,2.42.11,4.73.5,6.79.46,2.45,1.39,4.54,2.02,6.49.8,2.45,1.5,4.57,2.58,6.23,1.42,2.19,2.95,3.87,4.85,4.67,1.98.84,4.06.25,6.21-.32,1.95-.52,4.42-.41,6.31-1.58s3.68-2.49,5.26-3.82c1.85-1.56,3.68-2.95,4.94-4.15,2.53-2.41,2.37-3.71,3.12-3.2.7.47.99,1.65.72,2.29Z"/>
      <path class="cls-4" d="M148.24,133.71c-1.44,0-3.25,1.3-4.54.74-1.81-.78-2.18-3.71-3.6-5.6-1.13-1.5-3.54-2.51-4.42-4.71-.72-1.79-.36-4.14-.92-6.38-.47-1.91-1.42-3.87-1.77-6.1-.31-1.98.53-4.19.32-6.42-.17-1.77-1.36-3.55-1.47-5.51-.1-1.8.44-3.69.39-5.64-.02-1.95-1.95-2.5-.33-3.59,2.41-1.62,2.7-.37,5.61-.37s2.9,1.07,5.81,1.07c2.39,0,4.61-3.3,4.61-6.13s-2.22-5.05-4.61-5.05c-3.44,0-3.44-.48-6.89-.48s-3.45-.09-6.89-.09-4.46,2.93-6.93.52.2-3.41.2-6.78-1.23-3.37-1.23-6.75.52-3.37.52-6.75c0-2.39-3.03-5.43-7.27-5.43s-7.55,3.04-7.55,5.43c0,2.54-1.24,2.54-1.24,5.07s3.57,4.56,1.33,5.74c-4.23,2.24-5.95,2.04-10.17-.2-2.24-1.19.14-3.01.14-5.54s.51-2.54.51-5.07c0-2.39-3.98-3.95-8.22-3.95-2.96,0-5.49.65-6.86,2.2-1.55,1.76-.99,4.11-3.1,3.08s1.03-1.85,1.49-4.14c.67-3.28,2.84-5.71,6.19-5.71,2.33,0,2.33.25,4.66.25s4.16-2.64,4.16-5.47-1.75-5.1-4.16-5.1c-3.22,0-3.22-.64-6.43-.64s-3.21,1.43-6.43,1.43-3.22-.81-6.43-.81-3.22-.56-6.44-.56-3.22,1.11-6.44,1.11c-.34,0-.51.09-.81.17-.07.02-.2-.47-.26-.46-.7.07-1.22.88-1.83.96-1.65.23-1.83-1.01-3.48-.76-2.21.38-4.14,1.28-5.95,1.84-2.18.67-4.11,1.35-5.77,2.21-2.04,1.05-3.88,2.05-5.28,3.26-1.75,1.51-3.07,3.16-4.1,4.69-1.36,2.02-3.03,3.61-3.7,5.14-.99,2.24-.65,4.55-2.16,4.99-.84.24-1.89-.22-2.87-.88-.38-.26-1.6-.25-1.49-.7.29-1.23.94-1.41,1.96-2.15.38-.28.2,1.01.59,1.27.41.27,1.24.65,1.29.65.36-.11,1.11-2.48,1.58-3.56.73-1.64.45-4.36,1.81-6.47,1.06-1.64,2.62-3.5,4.4-5.12,1.45-1.32,3.91-1.78,6.01-2.93,1.73-.94,3.52-2.34,5.78-3.08,1.89-.62,4.26-.02,6.58-.45,1.98-.37,3.98-1.54,6.3-1.74.75-.07,1.56.69,2.36.65,3.12-.02,3.12-.82,6.24-.82s3.12.23,6.24.23,3.12.9,6.24.9,3.12-1.31,6.25-1.31,3.12.8,6.25.8c1.96,0,2.96,1.18,4.22,2.64,1.18,1.37,3.45,2.56,3.45,4.59,0,3.54-3.33,6.66-6.27,7.53,3.64,1.07,6.94,3.38,6.94,6.21,0,3.81-1.8,4.04.15,7.32,1.16,1.95,2.45,2.01,3.6.06,1.95-3.28.39-3.57.39-7.38,0-2.15,1.97-3.19,4.26-4.46,1.79-.99,3.6-2.63,6.1-2.63s4.48,1.33,6.27,2.32c2.29,1.27,4.52,2.63,4.52,4.77,0,2.95-.03,2.95-.03,5.9s-.17,2.95-.17,5.91-2.22,3.7-.11,5.76,2.88-.07,5.9-.07,3.03-.53,6.05-.53,3.03-.12,6.05-.12c1.96,0,3.4,2.07,4.65,3.54,1.16,1.37,1.29,2.95,1.29,4.98s-.37,3.4-1.53,4.77c-1.25,1.47-2.44,2.56-4.4,2.56-4.55,0-4.57-.18-9.08.46-.64.09.9.5.9,1.15.04,2.35-1.35,4.62-1.24,6.75.13,2.36,1.61,4.49,1.83,6.58.25,2.39-.49,4.74-.12,6.78.44,2.42,2.04,4.29,2.66,6.21.78,2.43.28,5.12,1.32,6.76,1.39,2.19,3.3,4.11,5.16,4.89,1.92.81,4.36-.1,6.47-.68,1.89-.53,3.43-2.06,5.26-3.22s3.28-2.5,4.82-3.8c1.8-1.52,4.27-2.03,5.5-3.2,2.72-2.59,3.41-4.05,4.49-3.31,1.04.7-.67,2.04-.96,2.73-.18.42.94.93.49,1.03-.65.14-.66.74-1.31.65-.32.29-.09.14-.45.48-.2.18-1.05-.72-1.25-.54-1.2,1.14-1.7,3.66-3.38,5.1-1.44,1.23-3.66,1.73-5.33,2.86s-3.5,1.83-5.28,2.56c-1.9.78-3.68,1.05-5.59,1.05ZM132.41,90.68c-1.27.69,1.34,1.95,1.35,3.39.05,1.93-1.96,3.86-1.86,5.66.11,1.95,1.89,3.7,2.06,5.45.2,2.15-.59,4.31-.29,6.22.33,2.17,1.26,4.08,1.71,5.93.52,2.18.09,4.51.76,6.25.83,2.15,2.76,3.55,3.82,5.01,1.36,1.86,2.62,3.71,4.35,4.46,1.16.5,2.63.62,3.93.62,1.84,0,3.68-.9,5.52-1.68,1.71-.72,3.98-.81,5.58-1.91s2.75-2.94,4.14-4.13c1.62-1.4,2.82-3.04,3.98-4.14.21-.2.54.16.75-.04.46-.43.96-.78,1.33-1.12.12-.1-.24-.64-.08-.62.48.06.48.71.93.57.3-.74-.23-.48-.52-.67-.39-.27.08-.33-2.29,1.92-1.29,1.23-3.98,1.63-5.87,3.22-1.62,1.36-2.61,3.72-4.48,4.88s-4.32.99-6.33,1.49c-2.19.56-4.43,2.2-6.47,1.34-1.94-.81-3.78-2.73-5.23-4.92-1.11-1.68-1.74-4.02-2.57-6.5-.66-1.98-.73-4.31-1.21-6.79-.4-2.1-1.59-4.25-1.86-6.7-.24-2.15-.18-4.49-.32-6.92-.12-2.19.34-4.51.3-6.92-.01-1.15-1.08-1.15-.03-1.63,2.3-1.05,2.22-.59,4.74-.59s2.52.25,5.05.25c1.68,0,3.04-1.28,4.11-2.57.98-1.19,1.73-2.66,1.73-4.42s-.1-3.76-1.09-4.95c-1.07-1.29-3.07-.9-4.75-.9-3.19,0-3.19-.81-6.38-.81s-3.19-.56-6.38-.56-4.48,3.18-6.76.95-.23-3.51-.23-6.63.5-3.12.5-6.24-.76-3.12-.76-6.24c0-1.86-.31-3.85-2.42-4.93-1.6-.83-3.81-.92-6.03-.92s-4.28.4-5.88,1.23c-2.12,1.09-3.7,2.77-3.7,4.63,0,4.31,2.69,5.07.09,8.51-1.97,2.6-3.55,2.07-5.52-.53-2.6-3.44-1.13-3.67-1.13-7.98,0-1.86-1.09-3.5-3.21-4.59-1.61-.83-3.64-.59-5.86-.59-1.99,0-3.78-.11-5.39.63-1.23.57-1.7-.32-2.89.34-.11.29-.77.97-.83,1.27-.09.47.14,1.19.57,1.39s-.36-1.35-.04-1.71c1.55-1.77,5.34-3.18,8.58-3.18,2.11,0,3.99,1.51,5.49,2.24,2.02.98,3.83,2.46,3.83,4.2,0,4.57-3.94,6.05-1.02,9.58,2.41,2.92,5.51,2.35,7.92-.57,2.92-3.52.76-4.44.76-9.01,0-1.74.58-3.47,2.61-4.46,1.5-.73,3.51-.95,5.62-.95s3.62,1.24,5.12,1.97c2.02.98,4.1,1.69,4.1,3.44,0,3.21-.8,3.21-.8,6.41s-.62,3.21-.62,6.42-.73,3.62,1.56,5.86,2.74.96,6.01.96,3.28-.77,6.56-.77,3.28-.24,6.56-.24c2.94,0,5.81,3.35,5.81,6.73s-2.87,6.15-5.81,6.15c-2.65,0-2.51-.46-5.1-1-2.85-.6-3.46-.8-5.8.46ZM23.71,61.97c.71.46,1.6-.66,2.13-.81,1.06-.31,2.93-.31,3.81-2.3.69-1.57.12-4.32,1.52-6.4,1.06-1.58,3.21-2.55,5.01-4.1,1.45-1.25,2.85-2.9,4.96-3.98,1.72-.89,4.02-.65,6.27-1.33,1.87-.57,3.64-2.08,5.93-2.46,1.68-.26,1.77.37,3.45.14.61-.08,1.23-.31,1.94-.37.35-.09.69-.57,1.12-.57,3.22,0,3.22,1.07,6.43,1.07s3.21-.72,6.43-.72,3.22-.37,6.43-.37,3.22.48,6.44.48,3.22.09,6.44.09c2.96,0,5.42,2.26,5.42,5.63s-2.46,5.97-5.42,5.97c-2.33,0-2.33,1.23-4.66,1.23-2.43,0-4.3-.06-5.25,2.1,1.02.65,1.29.39,2.18-.42,1.04-.95,1.69-2.49,3.08-2.49,2.33,0,2.33,1.24,4.66,1.24,1.69,0,2.63-2.27,3.7-3.55.99-1.19,1.65-2.31,1.65-4.07s-.16-3.29-1.16-4.48c-1.07-1.28-2.52-2.56-4.2-2.56-3.12,0-3.12.86-6.23.86s-3.12-.25-6.23-.25-3.12-.55-6.24-.55-3.12-.4-6.24-.4-3.12.64-6.24.66c-.76.04-1.56-.16-2.3-.09-2.25.2-4.26,1.02-6.18,1.37-2.25.42-4.31.75-6.14,1.34-2.2.72-4.42.98-6.1,1.88-2.05,1.11-2.91,3.48-4.32,4.75-1.74,1.56-3.59,2.59-4.63,4.17-1.34,2.04-2.72,3.77-3.42,5.35-.02.05.99.5.97.54-.88,1.98-1.74,3.48-2.52,3.72-.4.12-1.05-.49-1.64-.87-.56.03-.93.34-.82.58Z"/>
    </g>
    <g>
      <path class="cls-4" d="M148.32,143.83c.01.23-.01.51-.23.58-.74.23-3.5-.27-6.95-.27-2.16,0-4.05.11-5.93-.47-1.98-.61-4.27-.67-5.91-1.92-1.7-1.29-2.28-3.72-3.55-5.63-1.14-1.71-3.18-3.12-3.97-5.33-.7-1.93-1.77-4.04-2.2-6.34-.38-2.03-.24-4.35-.41-6.67-.16-2.08,1.26-4.31,1.27-6.61,0-2.1.27-4.33.42-6.62,0-.11-1.54.13-1.55.02-.11-3.92,1.53-4.13.58-7.94-1.74.91-4.22,2.01-6.5,2.01s-4.86-.45-6.55-1.36c-2.2-1.18-4.36-3.58-4.36-5.58,0-2.84,2.07-2.84,2.07-5.67s.3-2.98-1.68-5.01-3.2-2.93-5.13-.95.68,3.12.68,5.95.33,2.84.33,5.67c0,2-2.47,3.16-4.67,4.34-1.7.91-3.53,1.12-5.89,1.12s-4.86,1.04-6.55.13c-2.2-1.18-3.26-3.6-3.26-5.59,0-4.51,1.41-4.66.83-9.13-1.05.86-3.19.4-4.51.4-.22,0-.22.75-.43.75-1.76,0-2.57-1.2-3.7-2.53-1.05-1.24-3-2.24-3-4.07,0-3.22.19-3.22.19-6.44s1.26-3.22,1.26-6.44-.12-3.22-.12-6.44c0-1.92-2.2-3.06-3.94-3.89-.92-.37-.64-1.08-1.59-1.39-.1,0-.05.31-.15.32-.02.02-.33-1.09-.36-1.09-.26.06.03,2.03-.24,2.06-.27.03-.62-1.06-.86-1.03-2.5.27-4.97-.11-7.07.39-2.46.58-4.21,2.73-6.19,3.57-2.33.98-4.85,1.17-6.59,2.44-2.01,1.46-4.06,2.91-5.43,4.64-1.51,1.9-2.97,4-3.89,6.06-.98,2.19.26,5.11-.28,7.28-.6,2.4-2.13,4.45-2.5,6.57-.38,2.2-.23,4.34-.73,5.97-.73,2.34-2.22,3.27-4.2,3.48-.17.02-.27-.03-.42-.03-.11,0-.23.48-.33.47-.21-.02.63.04.58-.17-.16-.74-.75-.42-.5-1.13.07-.2-.15-.95.07-.94,1.63.11,2.94-.21,3.61-2.62.38-1.36-.44-3.32-.09-5.37.33-1.91.7-4.1,1.24-6.36.48-1.99,2.21-3.72,3.04-5.79.78-1.92.97-4.23,2.2-6.08,1.14-1.71,2.6-3.38,4.25-4.92,1.48-1.38,3.86-1.65,5.83-2.8,1.73-1.01,3.1-2.99,5.26-3.77,1.88-.68,4.16-.42,6.41-.89.25-.05.34-.93.61-.98.19-.04.47.45.66.41.51-.1,1.11.43,1.64.35,1.14-.17,2.14-1.76,3.34-1.87.36-.02.4.39.76.39.9,0,1.9-.16,2.68.17.15.05-.12.76.03.83.06.03.25-.54.31-.51,2.2,1.06,3.65,3.63,3.65,6.22,0,3.22-.56,3.22-.56,6.44s1.28,3.22,1.28,6.44-1.82,3.22-1.82,6.44c0,2.96,3.07,4.78,5.65,4.78.22,0,.22.78.43.78,1.5,0,3.3-.79,4.16-2.2.7-1.14.88-3.86,1.28-2.59,1.01,3.28.21,3.51.21,6.94s-1.19,3.43-1.19,6.86c0,1.56,1.69,3.57,3.62,4.47,1.41.66,3.48.35,5.41.35s3.8-.09,5.22-.76c1.94-.91,4.13-2.53,4.13-4.06,0-3.21-1.41-3.21-1.41-6.43s-1.67-3.79.9-5.72c3.43-2.57,4.73-3.45,8.16-.88,2.57,1.93-.16,3.38-.16,6.59s.71,3.21.71,6.43c0,1.53.37,3.39,2.3,4.3,1.42.67,3.42,1.16,5.33,1.16,2.52,0,4.85-1.29,6.44-2.47.61-.45,1.74-1.72,1.87-.97.68,3.95-.82,4.11-.82,8.12s-.08,4.01-.09,8.01c-.03,1.08.22,2.13.24,3.15,0,1.64,0,1.64,0,3.28,0,.52.49.92.63,1.4,0,.02-1.36.42-1.36.43.02.07.61-.13.63-.06.02.08,1.47.03,1.47.11,0,.03-.54-.02-.54,0,.03.38.15.7.18,1.07,0,0,.36-.09.36-.09.01.08,0,.1.02.18.02.17-1.41.53-1.38.71.3,2.69,2.07,4.89,2.68,7.13.72,2.64.98,5.11,2.13,7.12,1.34,2.33,2.32,4.97,4.23,6.43,1.7,1.29,4.14.93,5.9,1.44,2.06.6,3.91.72,5.67.67,3.34-.08,5.85-.1,5.9-.11.2-.07.67-1.3.85-1.18.65.43-.11,1.49-.08,2.26Z"/>
      <path class="cls-4" d="M141.14,146.08c-2.21,0-4.13-1.44-6.06-2.04-2.03-.63-4.44-.57-6.12-1.85-1.7-1.29-2.27-3.75-3.56-5.65-1.16-1.71-2.23-3.47-3.04-5.66-.71-1.93-.79-4.06-1.24-6.35-.4-2.03-2.42-3.95-2.61-6.27-.17-2.08,1.2-4.33,1.2-6.64,0-2.1.45-4.31.59-6.6,0-.09-1.49.11-1.49.01-.09-3.76,1.71-4.01.81-7.66-1.68.74-4.18.46-6.23.46-2.5,0-4.57-.2-6.36-1.19-2.29-1.27-4.84-2.79-4.84-4.93,0-2.71,1.08-2.71,1.08-5.42s1.53-3.35-.21-5.43c-1.45-1.74-2.28-1.06-3.73.67-1.74,2.08-.74,2.04-.74,4.75s-1.11,2.71-1.11,5.42c0,2.14-.93,3.13-3.23,4.4-1.79.99-3.57,1.7-6.07,1.7s-5.25,1.05-7.03.06c-2.29-1.27-3.63-4.01-3.63-6.15,0-4.03,1.77-4.18,1.25-8.18-.97.58-2.97-.01-4.07-.01-.22,0-.22.06-.43.06-1.9,0-3.88.3-5.1-1.12-1.14-1.33-1.37-3.35-1.37-5.32,0-3.22-.42-3.22-.42-6.44s-.29-3.22-.29-6.44.39-3.22.39-6.44c0-1.73-.53-4.24-2.1-4.98-.83-.33-1.12.31-1.98.07-.1-.03-.12.71-.23.72-.64.08-.72-.64-1.37-.58-2.46.27-4.82.39-6.89.88-2.43.57-4.84.96-6.79,1.79-2.3.97-4.07,2.75-5.79,4-1.98,1.44-3.62,3.13-4.97,4.83-1.49,1.87-2.92,3.79-3.83,5.81-.97,2.16-1.75,4.44-2.29,6.59-.59,2.37-.85,4.73-1.21,6.82-.4,2.32-.1,4.59-.66,6.3-.78,2.39-2.19,4.15-4.36,4.39-.34.03-.75.3-1.03.25-.44-.04-.65-.18-.77-.6-.34-1.2-.17-1.23.34-2.37.19-.43.27-.67.73-.64,2.02.14,2.58-1.97,3.56-7.7.33-1.93,1.4-3.94,1.96-6.23.49-2.01.55-4.24,1.41-6.34.79-1.95,1.17-4.28,2.42-6.15,1.16-1.73,2.74-3.41,4.41-4.97,1.5-1.4,3.85-1.87,5.85-3.04,1.75-1.02,3.44-2.43,5.63-3.22,1.91-.69,4.11-.75,6.39-1.22.26-.05.54,0,.81-.05.17-.04.31-.31.51-.35.52-.1,1.02-.18,1.56-.26,1.21-.19,2.34-.31,3.5-.42.39-.02.37-.93.75-.93.92,0,1.97-.08,2.8.26.37.08.18.77.52.93.16.07.3-.46.44-.36,2.25,1.23,2.62,4.18,2.62,6.76,0,3.22.74,3.22.74,6.44s-.1,3.22-.1,6.44-.7,3.22-.7,6.44c0,2.69,2.59,5.38,4.89,5.38.22,0,.22-.98.43-.98,1.33,0,2.44-.35,3.21-1.61,1.17-1.88,1.62-5.73,2.74-3.82,1.96,3.33.68,4.02.68,7.88s-1.85,3.87-1.85,7.73c0,2.39,4.48,4.94,8.71,4.94s8.55-2.6,8.55-4.94c0-3.34-.76-3.34-.76-6.68s-2.09-3.89.64-5.81c3.92-2.74,4.69-3.11,8.61-.37,2.74,1.91,1.41,2.84,1.41,6.17s-.55,3.34-.55,6.68c0,2.35,3.15,5.06,7.31,5.06,2.41,0,4.46-1.58,5.97-2.7,1.01-.75,1.57-2.33,2.12-1.19,1.24,2.55,1.05,2.79,1.05,5.63s-1.35,2.84-1.35,5.68,1.37,2.84,1.36,5.68c-.03,1.08-1.62,2.13-1.6,3.13.01,1.65.52,1.64.52,3.29,0,.46.64.77.74,1.18.02.06.27,0,.29.07.07.29-1.56.55-1.54.84,0,.05.61-.06.61,0,.01.52.12.53.17,1.04.02.2,1.03.26,1.06.43.29,2.65.73,4.95,1.33,7.16.71,2.6,1.77,4.57,2.9,6.55,1.31,2.3,2.62,3.85,4.49,5.28,1.64,1.25,2.45,3.89,4.17,4.39,2,.58,4.24-.54,5.95-.58,2.95-.07,4.97-1.08,5.43-1.23.44-.15.12.52.42.89.83.99,1.42.57,1.38,1.86-.01.5-.54-.65-1.02-.51-.96.3-3.33,2.44-6.71,2.44ZM120.69,104.09c0,.12-.92.13-.87.25.1.23,1.11.08,1.1.32-.15,2.26-1.5,4.38-1.51,6.45-.01,2.28.22,4.48.37,6.53.17,2.29-.03,4.58.34,6.59.42,2.28,2.66,3.93,3.35,5.84.78,2.19.43,4.76,1.55,6.46,1.25,1.89,2.64,3.94,4.31,5.21,1.59,1.22,4.07,1.05,6,1.64,1.83.56,3.72,1.66,5.82,1.66,3.17,0,6.21-.67,7.17-.97.18-.19-.34-1.4-.59-1.49-.62.19-3.08,2.15-6.1,2.22-1.81.04-3.83-1.21-5.93-1.82-1.8-.53-3.69-1.18-5.43-2.5-1.48-1.13-3.66-1.91-4.81-3.56-1.04-1.49-1.13-3.75-1.89-5.65-.67-1.67-.15-3.76-.6-5.75-.4-1.77-.67-3.56-.89-5.57-.02-.17-.28-.34-.3-.52,0-.06-1.77.14-1.78.08-.07-.68.52-.75.47-1.43,0-.02,1.27-.14,1.26-.15,0-.05.06-.22.04-.26-.14-.51-.23-.79-.23-1.37,0-1.64-1.29-1.64-1.3-3.28-.03-1.01.53-2.08.55-3.16.01-3.75-.42-3.75-.42-7.51s-.07-3.73-.29-7.48c-.02-.26.36.22.15.37-1.68,1.25-4.22.91-6.84.91-2.05,0-3.84.28-5.36-.47-2.02-1-3.89-2.29-3.89-3.96,0-3.09.71-3.09.71-6.18s2.46-4.66.07-6.61c-2.93-2.39-5.58-2.69-8.51-.29-2.39,1.95.33,3.81.33,6.9s.06,3.09.06,6.18c0,1.67-1.33,2.76-3.36,3.76-1.52.75-3.21,1.09-5.26,1.09s-3.81-.25-5.31-.99c-2.02-.99-3.78-2.16-3.78-3.86,0-2.99.02-2.99.02-5.99s.03-2.96-.25-5.94c-.04-.46.22.31-.03.71-.95,1.56-2.47,2.26-4.15,2.26-.22,0-.22.85-.43.85-2.84,0-5.26-3.23-5.26-6.47,0-3.22.71-3.22.71-6.44s-.57-3.22-.57-6.44-.71-3.22-.71-6.44c0-2.31-.9-3.98-2.99-4.98-.14-.07.28-1.01.14-1.08-.73-.31-1.72.05-2.54.05-.37,0-.4-.56-.76-.54-1.09.11-2.29.15-3.49.34-.53.08-1.01.4-1.52.5-.19.03-.37.07-.55.11-.28.05-.55.08-.79.14-2.22.46-3.99,1.92-5.85,2.6-2.14.77-3.82,1.86-5.52,2.86-1.95,1.14-4.14,1.6-5.6,2.97-1.62,1.52-2.28,3.64-3.4,5.33-1.21,1.83-3.37,3.09-4.13,4.98-.83,2.05-.74,4.36-1.21,6.32-.54,2.23-1,4.33-1.32,6.2-.35,2.05-1.34,3.73-1.8,5.24-.69,2.3-1.1,3.48-2.97,3.39-.25.06.53.69.56.95.09,0-.32-.1-.25-.1.14,0,.25-.15.39-.17,1.78-.19,1.87-1.69,2.54-3.98.46-1.54,2.58-3.02,2.93-5.08.33-1.9.32-3.99.81-6.11.45-1.94,1.17-3.8,1.94-5.79.72-1.87.92-4.02,2.07-5.81,1.07-1.67,3.13-2.49,4.7-3.98,1.41-1.34,2.62-2.84,4.52-3.97,1.66-.98,2.83-3.39,4.92-4.16,1.81-.66,4.04-.74,6.21-1.21,1.89-.41,4.1.42,6.3.18.39-.04.28-1.03.67-1.08,0,0,.06.44.06.44.26-.06.06-1.1.31-1.15.11-.01.35,1.32.46,1.32.08,0,.42-1.31.5-1.28.95.31.42,1.77,1.35,2.15,1.96.93,3.32,2.3,3.32,4.41,0,3.22.61,3.22.61,6.44s.25,3.22.25,6.44-1.69,3.22-1.69,6.44c0,3.53,3.5,6.66,6.63,6.66.22,0,.22-.07.43-.07,1.19,0,1.87-1.26,2.84-2.05.41-.33,2.03-.71,2.13-.2.46,2.48.27,2.67.27,5.19s0,2.52,0,5.04c0,1.86-.19,4.43,1.92,5.52,1.6.83,4.11.11,6.33.11s3.96-.8,5.56-1.63c2.12-1.09,4.67-2.15,4.67-4.01,0-2.96-.72-2.96-.72-5.92s-1.81-3.32.38-5.31c2.42-2.19,3.51-2.75,5.92-.56,2.19,1.99.52,2.91.52,5.87s-1.29,2.96-1.29,5.92c0,1.86,1.97,3.9,4.09,4.99,1.6.82,3.84.35,6.07.35s4.56.7,6.25-.19c.37-.19.81-1.54.94-1.14,1.3,3.9-.01,4.26.11,8.37Z"/>
    </g>
    <g>
      <path class="cls-4" d="M133.57,8.44c-2.02-.81-3.68-2.56-5.69-3.22s-4.33-.64-6.39-1.15-4.11-1.55-6.2-1.91-4.38.02-6.49-.18-4.28-1.44-6.4-1.48-4.27,1.9-6.4,2.03-4.3-.16-6.41.15-4.12,1.13-6.2,1.6-4.47-.11-6.51.53-3.93,1.82-5.91,2.63-3.88,1.82-5.8,2.78-3.89,1.83-5.72,2.95-3.77,2.1-5.51,3.36-3.04,3.07-4.68,4.46-3.51,2.5-5.03,4.02-2.84,3.22-4.23,4.85-3.3,2.89-4.56,4.63-2.39,3.61-3.51,5.45-.98,4.35-1.95,6.27-2.14,3.68-2.95,5.67-2.67,3.6-3.31,5.66.33,4.52-.15,6.62-2.67,3.86-2.97,6,.85,4.41.71,6.57-1.26,4.25-1.23,6.42,1.39,4.2,1.59,6.36-.58,4.38-.21,6.52,2.16,3.89,2.69,6-.75,4.65-.08,6.72,1.96,3.88,2.77,5.9,1.89,4.04,2.9,6.01,1.75,4.15,2.93,6.02,2.69,3.59,4.03,5.35,2.47,3.78,3.96,5.42,3.47,2.87,5.1,4.36,3.43,2.83,5.2,4.18,3.38,2.95,5.26,4.13,4.54.93,6.52,1.94,3.93,1.82,5.99,2.65,3.43,3.19,5.45,3.85,4.57-.27,6.63.24,3.95,2.15,6.04,2.51,4.38-.19,6.49.01,4.25,1.62,6.37,1.65,4.31-1.08,6.44-1.21,4.3-.2,6.41-.51,4.15-1.1,6.24-1.57,4.59.39,6.63-.25,3.87-2.11,5.85-2.91,3.98-1.67,5.9-2.64,4.21-1.38,6.04-2.49,3.04-3.26,4.78-4.52,4.09-1.8,5.72-3.19,2.23-3.94,3.75-5.46,2.63-3.33,4.03-4.97,4.04-2.27,5.3-4.02,2.5-3.56,3.62-5.4,1.68-4.02,2.65-5.94.92-4.26,1.73-6.26,3.13-3.43,3.78-5.49-.35-4.54.13-6.64,1.14-4.09,1.45-6.23,1.47-4.15,1.61-6.31-1.31-4.29-1.34-6.45,1.11-4.31.91-6.47-1.47-4.09-1.84-6.24-1.1-4.06-1.62-6.18.65-4.61-.02-6.69-1.27-4.14-2.08-6.16-2.48-3.8-3.49-5.76-3.1-3.29-4.27-5.16-2.2-3.77-3.54-5.52-1.75-4.29-3.24-5.93-4.13-2.1-5.76-3.6-2.56-3.77-4.32-5.12-3.93-2.07-5.81-3.25-3.52-2.71-5.5-3.72-4.16-1.48-6.22-2.31ZM69.4,153.11c-1.97-.79-3.58-2.42-5.46-3.38s-3.32-2.63-5.11-3.75-3.55-2.18-5.23-3.46-3.18-2.68-4.74-4.11-2.96-2.91-4.39-4.47-4.24-1.97-5.52-3.66-.79-4.59-1.92-6.38-3.71-2.73-4.67-4.62-.28-4.5-1.07-6.47c-.84-2.09-2.49-3.82-3.15-5.9s-1.75-4.17-2.25-6.3.28-4.59-.05-6.76-2.09-4.25-2.24-6.44,1.34-4.49,1.38-6.69-.17-4.42.05-6.6.36-4.41.77-6.57.19-4.53.79-6.65c.42-1.51.81-3.61,1.68-5.94.64-1.71,1.35-3.71,2.29-5.74.81-1.73,3.29-2.74,4.36-4.63.96-1.69.89-4.11,2.08-5.88,1.1-1.63,2.02-3.54,3.34-5.2,1.23-1.55,2.96-2.8,4.4-4.34,1.36-1.45,2.53-3.22,4.08-4.64,1.34-1.23,3.05-3.1,5.37-4.85,1.71-1.29,3.76-2.7,5.99-4.08,1.9-1.17,4.45-1.61,6.72-2.74,2.03-1.01,4.63-.95,6.95-1.85,2.14-.83,3.76-3.51,6.15-4.19,1.58-.45,3.89-.94,6.59-1.42,1.94-.34,4.29.02,6.72-.2,2.06-.19,4.29-.61,6.65-.64,2.11-.02,4.35.33,6.66.48,2.13.14,4.32.58,6.59.91,2.12.31,4.36.47,6.59.98,2.1.48,4.48.39,6.65,1.07,2.06.65,3.7,2.7,5.82,3.55,1.97.79,3.8,1.77,5.68,2.73s4.05,1.41,5.83,2.53,2.83,3.28,4.5,4.56,3.75,2.02,5.31,3.44,3.54,2.45,4.96,4.01,2.5,3.44,3.78,5.13,1.63,3.96,2.76,5.75,2.3,3.46,3.26,5.34,2.16,3.59,2.96,5.56c.84,2.08,2,3.99,2.66,6.06s1.53,4.2,2.03,6.31.66,4.41,1,6.56.66,4.39.82,6.57.4,4.44.38,6.62.44,4.51.23,6.68-1.59,4.27-1.99,6.42-.92,4.31-1.5,6.42-1.27,4.21-2.04,6.27-2.06,3.88-3,5.86-1.16,4.35-2.27,6.25-1.68,4.22-2.95,6.02-4.03,2.47-5.45,4.16-2.67,3.46-4.23,5.01-2.82,3.42-4.5,4.84-3.63,2.49-5.43,3.76-3.71,2.31-5.62,3.42-3.28,3.24-5.28,4.18-4.31,1.19-6.38,1.96-4.29.99-6.42,1.58-4.01,2.24-6.19,2.64-4.48-.08-6.69.13-4.38-.07-6.6-.04-4.31-.53-6.53-.69-4.55,1.3-6.76.96-4.09-1.96-6.27-2.48-4.4-.47-6.53-1.16-4.33-.98-6.41-1.81Z"/>
      <path class="cls-3" d="M133.57,8.44c-2.02-.81-3.68-2.56-5.69-3.22s-4.33-.64-6.39-1.15-4.11-1.55-6.2-1.91-4.38.02-6.49-.18-4.28-1.44-6.4-1.48-4.27,1.9-6.4,2.03-4.3-.16-6.41.15-4.12,1.13-6.2,1.6-4.47-.11-6.51.53-3.93,1.82-5.91,2.63-3.88,1.82-5.8,2.78-3.89,1.83-5.72,2.95-3.77,2.1-5.51,3.36-3.04,3.07-4.68,4.46-3.51,2.5-5.03,4.02-2.84,3.22-4.23,4.85-3.3,2.89-4.56,4.63-2.39,3.61-3.51,5.45-.98,4.35-1.95,6.27-2.14,3.68-2.95,5.67-2.67,3.6-3.31,5.66.33,4.52-.15,6.62-2.67,3.86-2.97,6,.85,4.41.71,6.57-1.26,4.25-1.23,6.42,1.39,4.2,1.59,6.36-.58,4.38-.21,6.52,2.16,3.89,2.69,6-.75,4.65-.08,6.72,1.96,3.88,2.77,5.9,1.89,4.04,2.9,6.01,1.75,4.15,2.93,6.02,2.69,3.59,4.03,5.35,2.47,3.78,3.96,5.42,3.47,2.87,5.1,4.36,3.43,2.83,5.2,4.18,3.38,2.95,5.26,4.13,4.54.93,6.52,1.94,3.93,1.82,5.99,2.65,3.43,3.19,5.45,3.85,4.57-.27,6.63.24,3.95,2.15,6.04,2.51,4.38-.19,6.49.01,4.25,1.62,6.37,1.65,4.31-1.08,6.44-1.21,4.3-.2,6.41-.51,4.15-1.1,6.24-1.57,4.59.39,6.63-.25,3.87-2.11,5.85-2.91,3.98-1.67,5.9-2.64,4.21-1.38,6.04-2.49,3.04-3.26,4.78-4.52,4.09-1.8,5.72-3.19,2.23-3.94,3.75-5.46,2.63-3.33,4.03-4.97,4.04-2.27,5.3-4.02,2.5-3.56,3.62-5.4,1.68-4.02,2.65-5.94.92-4.26,1.73-6.26,3.13-3.43,3.78-5.49-.35-4.54.13-6.64,1.14-4.09,1.45-6.23,1.47-4.15,1.61-6.31-1.31-4.29-1.34-6.45,1.11-4.31.91-6.47-1.47-4.09-1.84-6.24-1.1-4.06-1.62-6.18.65-4.61-.02-6.69-1.27-4.14-2.08-6.16-2.48-3.8-3.49-5.76-3.1-3.29-4.27-5.16-2.2-3.77-3.54-5.52-1.75-4.29-3.24-5.93-4.13-2.1-5.76-3.6-2.56-3.77-4.32-5.12-3.93-2.07-5.81-3.25-3.52-2.71-5.5-3.72-4.16-1.48-6.22-2.31ZM69.4,153.11c-1.97-.79-3.58-2.42-5.46-3.38s-3.32-2.63-5.11-3.75-3.55-2.18-5.23-3.46-3.18-2.68-4.74-4.11-2.96-2.91-4.39-4.47-4.24-1.97-5.52-3.66-.79-4.59-1.92-6.38-3.71-2.73-4.67-4.62-.28-4.5-1.07-6.47c-.84-2.09-2.49-3.82-3.15-5.9s-1.75-4.17-2.25-6.3.28-4.59-.05-6.76-2.09-4.25-2.24-6.44,1.34-4.49,1.38-6.69-.17-4.42.05-6.6.36-4.41.77-6.57.19-4.53.79-6.65c.42-1.51.81-3.61,1.68-5.94.64-1.71,1.35-3.71,2.29-5.74.81-1.73,3.29-2.74,4.36-4.63.96-1.69.89-4.11,2.08-5.88,1.1-1.63,2.02-3.54,3.34-5.2,1.23-1.55,2.96-2.8,4.4-4.34,1.36-1.45,2.53-3.22,4.08-4.64,1.34-1.23,3.05-3.1,5.37-4.85,1.71-1.29,3.76-2.7,5.99-4.08,1.9-1.17,4.45-1.61,6.72-2.74,2.03-1.01,4.63-.95,6.95-1.85,2.14-.83,3.76-3.51,6.15-4.19,1.58-.45,3.89-.94,6.59-1.42,1.94-.34,4.29.02,6.72-.2,2.06-.19,4.29-.61,6.65-.64,2.11-.02,4.35.33,6.66.48,2.13.14,4.32.58,6.59.91,2.12.31,4.36.47,6.59.98,2.1.48,4.48.39,6.65,1.07,2.06.65,3.7,2.7,5.82,3.55,1.97.79,3.8,1.77,5.68,2.73s4.05,1.41,5.83,2.53,2.83,3.28,4.5,4.56,3.75,2.02,5.31,3.44,3.54,2.45,4.96,4.01,2.5,3.44,3.78,5.13,1.63,3.96,2.76,5.75,2.3,3.46,3.26,5.34,2.16,3.59,2.96,5.56c.84,2.08,2,3.99,2.66,6.06s1.53,4.2,2.03,6.31.66,4.41,1,6.56.66,4.39.82,6.57.4,4.44.38,6.62.44,4.51.23,6.68-1.59,4.27-1.99,6.42-.92,4.31-1.5,6.42-1.27,4.21-2.04,6.27-2.06,3.88-3,5.86-1.16,4.35-2.27,6.25-1.68,4.22-2.95,6.02-4.03,2.47-5.45,4.16-2.67,3.46-4.23,5.01-2.82,3.42-4.5,4.84-3.63,2.49-5.43,3.76-3.71,2.31-5.62,3.42-3.28,3.24-5.28,4.18-4.31,1.19-6.38,1.96-4.29.99-6.42,1.58-4.01,2.24-6.19,2.64-4.48-.08-6.69.13-4.38-.07-6.6-.04-4.31-.53-6.53-.69-4.55,1.3-6.76.96-4.09-1.96-6.27-2.48-4.4-.47-6.53-1.16-4.33-.98-6.41-1.81Z"/>
    </g>
    <text class="cls-2" transform="translate(16.42 186.61)"><tspan class="cls-5" x="0" y="0">T</tspan><tspan x="13.44" y="0">ree House </tspan><tspan class="cls-1" x="116.84" y="0">T</tspan><tspan x="129.44" y="0">ales</tspan></text>
  </g>
</svg>